<svg width="18" height="22" viewBox="0 0 18 22" fill="none" xmlns="http://www.w3.org/2000/svg">
<path d="M9 21.9375C9.59619 21.9357 10.1675 21.6981 10.589 21.2765C11.0106 20.855 11.2482 20.2837 11.25 19.6875H6.75C6.75178 20.2837 6.98941 20.855 7.41098 21.2765C7.83255 21.6981 8.40381 21.9357 9 21.9375ZM15.75 15.1875V9.5625C15.75 6.10875 13.9162 3.2175 10.6875 2.4525V1.6875C10.6875 1.23995 10.5097 0.810725 10.1932 0.494257C9.87678 0.17779 9.44755 0 9 0C8.55245 0 8.12322 0.17779 7.80676 0.494257C7.49029 0.810725 7.3125 1.23995 7.3125 1.6875V2.4525C4.095 3.2175 2.25 6.0975 2.25 9.5625V15.1875L0 17.4375V18.5625H18V17.4375L15.75 15.1875ZM13.5 16.3125H4.5V9.5625C4.5 6.7725 6.19875 4.5 9 4.5C11.8013 4.5 13.5 6.7725 13.5 9.5625V16.3125Z" fill="white"/>
</svg>
