<svg width="43" height="43" viewBox="0 0 43 43" fill="none" xmlns="http://www.w3.org/2000/svg">
<path fill-rule="evenodd" clip-rule="evenodd" d="M21.4969 0C27.2429 0 32.6429 2.234 36.6989 6.292C45.0829 14.676 45.0829 28.316 36.6989 36.7C32.5889 40.812 27.0549 42.988 21.4489 42.988C18.3929 42.988 15.3169 42.342 12.4389 41.01C11.5909 40.67 10.7969 40.35 10.2269 40.35C9.57088 40.354 8.68888 40.658 7.83688 40.952C6.08888 41.552 3.91287 42.3 2.30287 40.696C0.698874 39.09 1.43887 36.92 2.03487 35.174C2.32887 34.314 2.63087 33.426 2.63087 32.754C2.63087 32.202 2.36487 31.498 1.95687 30.484C-1.78913 22.394 -0.0571256 12.644 6.29688 6.294C10.3529 2.236 15.7509 0 21.4969 0ZM21.4989 3C16.5529 3 11.9069 4.924 8.41687 8.416C2.94887 13.88 1.46087 22.27 4.71088 29.296C5.17887 30.454 5.63087 31.582 5.63087 32.754C5.63087 33.924 5.22888 35.102 4.87488 36.142C4.58288 36.998 4.14087 38.29 4.42487 38.574C4.70287 38.862 6.00287 38.408 6.86088 38.114C7.89087 37.762 9.05888 37.358 10.2169 37.35C11.3769 37.35 12.4709 37.79 13.6289 38.256C20.7229 41.536 29.1129 40.044 34.5789 34.58C41.7909 27.364 41.7909 15.626 34.5789 8.414C31.0869 4.922 26.4429 3 21.4989 3ZM29.3927 20.3254C30.4967 20.3254 31.3927 21.2194 31.3927 22.3254C31.3927 23.4314 30.4967 24.3254 29.3927 24.3254C28.2887 24.3254 27.3847 23.4314 27.3847 22.3254C27.3847 21.2194 28.2707 20.3254 29.3747 20.3254H29.3927ZM21.3751 20.3254C22.4791 20.3254 23.3751 21.2194 23.3751 22.3254C23.3751 23.4314 22.4791 24.3254 21.3751 24.3254C20.2711 24.3254 19.3671 23.4314 19.3671 22.3254C19.3671 21.2194 20.2511 20.3254 21.3571 20.3254H21.3751ZM13.3567 20.3254C14.4607 20.3254 15.3567 21.2194 15.3567 22.3254C15.3567 23.4314 14.4607 24.3254 13.3567 24.3254C12.2527 24.3254 11.3487 23.4314 11.3487 22.3254C11.3487 21.2194 12.2347 20.3254 13.3387 20.3254H13.3567Z" fill="black"/>
</svg>
