<svg width="36" height="36" viewBox="0 0 36 36" fill="none" xmlns="http://www.w3.org/2000/svg">
<path fill-rule="evenodd" clip-rule="evenodd" d="M18.0542 3H17.9472C12.8935 3 8.25981 6.66684 7.81027 11.5214C7.78029 11.8687 7.75986 12.2236 7.74666 12.6059L7.72819 13.4996L7.72453 14.3009L7.7471 14.2096C7.53854 15.2266 7.05787 16.1699 6.3548 16.9407L6.25404 17.0703C5.65205 17.9848 5.30616 19.0433 5.25262 20.1363L5.25136 20.4937C5.22062 21.9312 5.71323 23.3537 6.63994 24.4835C7.89666 25.8104 9.52344 26.6019 11.2694 26.7699C15.735 27.2548 20.253 27.2548 24.731 26.7686C26.4651 26.609 28.0967 25.8151 29.3007 24.5373C30.2099 23.4496 30.706 22.1445 30.7485 20.7931L30.75 20.1881C30.7002 19.047 30.3522 17.9875 29.7429 17.077L29.6504 16.9582L29.4244 16.6923C28.9164 16.0579 28.5454 15.327 28.3344 14.5453L28.2675 14.2647L28.2537 13.9703C28.2495 13.8379 28.2475 13.6911 28.2468 13.5077L28.2466 12.4981C28.2432 12.1119 28.2317 11.8372 28.205 11.528C27.7402 6.66428 23.1052 3 18.0542 3ZM17.9471 5.0931H18.0541C22.1003 5.0931 25.7915 8.01121 26.146 11.72C26.167 11.9635 26.1763 12.1957 26.1791 12.5408L26.1832 13.8978C26.1877 14.1148 26.1962 14.2953 26.2108 14.4983L26.2301 14.6373L26.3275 15.051C26.6159 16.1453 27.1339 17.1662 27.847 18.0464L28.0538 18.2889L28.0309 18.2509C28.4265 18.842 28.6518 19.5279 28.6833 20.2353L28.6822 20.4804C28.7061 21.4646 28.3798 22.3996 27.7625 23.1401C26.9467 24.003 25.7805 24.5704 24.5269 24.6859C20.179 25.1579 15.8088 25.1579 11.4774 24.6876C10.2101 24.5656 9.04313 23.9978 8.18045 23.0897C7.62121 22.4035 7.29844 21.4715 7.3187 20.5162L7.31894 20.1882L7.34514 19.9024C7.40826 19.4243 7.56799 18.9398 7.81558 18.4937L7.94114 18.2859C8.8616 17.2506 9.4933 15.9918 9.77152 14.6351L9.7931 14.4224L9.80289 13.0435L9.82697 12.3439C9.8379 12.1232 9.85189 11.9135 9.86942 11.7102C10.212 8.01138 13.8997 5.0931 17.9471 5.0931ZM7.94114 18.2859C7.91888 18.3109 7.89645 18.3358 7.87385 18.3606L7.94775 18.275L7.94114 18.2859ZM21.912 29.5357C21.4671 29.1734 20.8163 29.2448 20.4584 29.6951C20.3033 29.8903 20.1237 30.0654 19.9239 30.2162C19.2462 30.7477 18.4004 30.9844 17.5596 30.8843C16.7201 30.7843 15.9569 30.3569 15.4391 29.699C15.0833 29.247 14.4329 29.1725 13.9863 29.5326C13.5397 29.8928 13.4661 30.5512 13.8219 31.0032C14.6805 32.0942 15.9387 32.7987 17.318 32.963C18.696 33.1271 20.0837 32.7388 21.1751 31.8824C21.4991 31.6381 21.8049 31.34 22.0694 31.0071C22.4273 30.5568 22.3568 29.898 21.912 29.5357Z" fill="#200E32"/>
</svg>
