<svg width="24" height="24" viewBox="0 0 24 24" fill="none" xmlns="http://www.w3.org/2000/svg">
    <mask id="mask0" mask-type="alpha" maskUnits="userSpaceOnUse" x="2" y="1" width="21" height="22">
        <path fill-rule="evenodd" clip-rule="evenodd" d="M2 1.00021H22.4998V22.5052H2V1.00021Z" fill="white"/>
    </mask>
    <g mask="url(#mask0)">
<path fill-rule="evenodd" clip-rule="evenodd" d="M31.2099 11.4351L30.2762 9.81492C29.4864 8.44404 27.7359 7.97111 26.3632 8.75771V8.75771C25.7097 9.14265 24.93 9.25186 24.1959 9.06127C23.4619 8.87067 22.8338 8.39591 22.4501 7.74169C22.2033 7.32586 22.0707 6.85223 22.0657 6.36869V6.36869C22.088 5.59347 21.7955 4.84224 21.2549 4.28614C20.7143 3.73004 19.9717 3.41643 19.1961 3.41675H17.3151C16.5553 3.41674 15.8268 3.71951 15.2909 4.25805C14.7549 4.7966 14.4556 5.52652 14.4593 6.28631V6.28631C14.4368 7.85502 13.1586 9.11485 11.5897 9.11469C11.1062 9.10967 10.6326 8.97705 10.2167 8.73025V8.73025C8.84397 7.94366 7.09355 8.41658 6.30369 9.78746L5.3014 11.4351C4.51249 12.8042 4.97898 14.5535 6.34488 15.3481V15.3481C7.23273 15.8607 7.77967 16.808 7.77967 17.8332C7.77967 18.8584 7.23273 19.8058 6.34488 20.3184V20.3184C4.98071 21.1075 4.51372 22.8526 5.3014 24.2177V24.2177L6.24877 25.8515C6.61885 26.5193 7.23978 27.0121 7.97417 27.2208C8.70855 27.4295 9.49584 27.337 10.1618 26.9637V26.9637C10.8165 26.5816 11.5967 26.477 12.3289 26.6729C13.0611 26.8689 13.6847 27.3492 14.0611 28.0071C14.3079 28.423 14.4405 28.8966 14.4456 29.3801V29.3801C14.4456 30.965 15.7303 32.2497 17.3151 32.2497H19.1961C20.7756 32.2497 22.0581 30.9733 22.0657 29.3939V29.3939C22.062 28.6317 22.3632 27.8997 22.9021 27.3607C23.4411 26.8218 24.1731 26.5206 24.9353 26.5243C25.4176 26.5372 25.8893 26.6693 26.3083 26.9087V26.9087C27.6774 27.6976 29.4268 27.2312 30.2213 25.8653V25.8653L31.2099 24.2177C31.5925 23.5609 31.6975 22.7787 31.5017 22.0442C31.3058 21.3097 30.8253 20.6837 30.1664 20.3046V20.3046C29.5075 19.9256 29.0269 19.2995 28.8311 18.565C28.6352 17.8306 28.7403 17.0484 29.1229 16.3916C29.3717 15.9571 29.7319 15.5969 30.1664 15.3481V15.3481C31.5241 14.554 31.9895 12.8149 31.2099 11.4488V11.4488V11.4351Z" stroke="#200E32" stroke-width="2" stroke-linecap="round" stroke-linejoin="round"/>
<ellipse opacity="0.4" cx="18.2626" cy="17.8331" rx="3.95423" ry="3.95423" stroke="#200E32" stroke-width="2" stroke-linecap="round" stroke-linejoin="round"/>
    </g>
</svg>
